<?xml version="1.0" encoding="UTF-8"?><svg id="Layer_1" xmlns="http://www.w3.org/2000/svg" viewBox="0 0 2752.34 2752.34"><defs><style>.cls-1{fill:#fff;}.cls-2{fill:#0b263e;}</style></defs><circle class="cls-1" cx="1376.17" cy="1376.17" r="1376.17"/><path class="cls-2" d="m1376.17,126.17C685.83,126.17,126.17,685.83,126.17,1376.17s559.66,1250,1250,1250,1250-559.63,1250-1250S2066.54,126.17,1376.17,126.17Zm498.41,1150.01l-499.7,832.1c-13.96,23.24-49.46,13.3-49.46-13.74l-.33-577.58h-424.47c-4.74-.02-9.4-1.29-13.49-3.7-4.08-2.41-7.46-5.85-9.78-9.99-2.32-4.14-3.51-8.82-3.43-13.56s1.41-9.38,3.87-13.44l499.7-832.21c13.96-23.24,49.46-13.3,49.46,13.74l.36,577.6h424.44c4.75.02,9.42,1.29,13.52,3.7,4.1,2.41,7.49,5.87,9.81,10.02,2.33,4.15,3.5,8.84,3.42,13.6-.09,4.75-1.44,9.4-3.92,13.46h0Z"/></svg>