<?xml version="1.0" encoding="UTF-8"?><svg id="Layer_2" xmlns="http://www.w3.org/2000/svg" xmlns:xlink="http://www.w3.org/1999/xlink" viewBox="0 0 1024 1024"><defs><style>.cls-1{fill:url(#linear-gradient);}.cls-2{fill:url(#linear-gradient-2);}.cls-3{fill:url(#radial-gradient);}</style><linearGradient id="linear-gradient" x1="20.31" y1="863.72" x2="670.41" y2="488.38" gradientUnits="userSpaceOnUse"><stop offset=".23" stop-color="#0b263e"/><stop offset=".71" stop-color="#8ea8ba" stop-opacity=".32"/><stop offset="1" stop-color="#cde6f5" stop-opacity="0"/></linearGradient><linearGradient id="linear-gradient-2" x1="1024" y1="351.49" x2="333.76" y2="351.49" gradientUnits="userSpaceOnUse"><stop offset=".23" stop-color="#1985a1"/><stop offset=".26" stop-color="#2189a4" stop-opacity=".95"/><stop offset=".62" stop-color="#7dbacf" stop-opacity=".44"/><stop offset=".87" stop-color="#b6daea" stop-opacity=".12"/><stop offset="1" stop-color="#cde6f5" stop-opacity="0"/></linearGradient><radialGradient id="radial-gradient" cx="506.22" cy="522.07" fx="506.22" fy="522.07" r="285.03" gradientUnits="userSpaceOnUse"><stop offset=".94" stop-color="#0b263e"/><stop offset=".95" stop-color="#1c374e" stop-opacity=".91"/><stop offset=".97" stop-color="#4e697e" stop-opacity=".65"/><stop offset=".99" stop-color="#a1bacb" stop-opacity=".22"/><stop offset="1" stop-color="#cde6f5" stop-opacity="0"/></radialGradient></defs><g id="Layer_1-2"><g><path class="cls-1" d="M537.53,740.19l-124.13,124.13c-33.88,33.88-78.94,52.55-126.86,52.55s-92.97-18.66-126.86-52.55c-33.88-33.88-52.55-78.94-52.55-126.86s18.66-92.97,52.55-126.86l129.9-129.9c10.42-10.42,21.82-19.28,33.9-26.59,6.19-3.75,12.56-7.09,19.08-10.03,.08-.04,.16-.07,.24-.11,2.66-1.19,5.34-2.32,8.04-3.37,.19-.07,.37-.15,.56-.22,.87-.34,1.74-.67,2.62-.99,0,0,0,0,.01,0,1.72-.63,3.44-1.24,5.17-1.82,.27-.09,.55-.19,.82-.28,.78-.26,1.57-.51,2.36-.76,.36-.11,.72-.22,1.08-.33,1.34-.41,2.68-.81,4.02-1.18,.41-.12,.82-.23,1.23-.35,.69-.19,1.39-.37,2.08-.55,.52-.14,1.05-.27,1.57-.4,.66-.17,1.31-.33,1.97-.49,1.04-.25,2.07-.49,3.12-.72,.57-.13,1.14-.24,1.72-.37,.67-.14,1.35-.28,2.03-.42,.56-.11,1.12-.22,1.68-.33,.92-.17,1.84-.34,2.76-.5,.56-.1,1.11-.19,1.67-.28,.9-.15,1.8-.29,2.7-.42,.48-.07,.95-.14,1.43-.21,.91-.13,1.82-.25,2.73-.36,.34-.04,.69-.09,1.03-.13,1.21-.14,2.42-.27,3.63-.39,.39-.04,.77-.07,1.16-.11,.95-.09,1.91-.17,2.86-.24,.35-.03,.7-.06,1.05-.08,1.25-.09,2.5-.16,3.75-.22,.25-.01,.51-.02,.77-.03,1.05-.05,2.1-.08,3.15-.11,.35,0,.7-.02,1.05-.03,1.28-.03,2.56-.05,3.84-.05s2.47,.02,3.71,.04c.49,.01,.98,.02,1.47,.04,.7,.02,1.41,.05,2.11,.08,1.61,.07,3.23,.15,4.84,.26,41.82,2.81,82.83,20.15,114.73,52.05,19.69,19.69,34.22,43.15,42.96,68.75,6.98,1.1,14.1,1.67,21.31,1.67,30.37,0,59.17-9.93,82.68-28.24-2.41-7.79-5.16-15.5-8.25-23.11-14.43-35.58-35.6-67.48-62.94-94.82-27.34-27.34-59.24-48.51-94.82-62.94-22.65-9.19-46.14-15.38-70.18-18.54,0,0,0,0-.01,0-1.42-.19-2.85-.36-4.27-.53-.27-.03-.53-.06-.8-.09-1.32-.15-2.64-.29-3.96-.42-.13-.01-.26-.03-.4-.04-1.47-.14-2.95-.28-4.43-.4-.19-.02-.38-.03-.57-.04-1.25-.1-2.49-.19-3.74-.27-.34-.02-.67-.04-1.01-.07-1.32-.08-2.63-.16-3.95-.23-.12,0-.24-.01-.36-.02-1.43-.07-2.87-.13-4.3-.17-.35-.01-.7-.02-1.05-.03-1.11-.03-2.21-.06-3.32-.08-.4,0-.79-.02-1.19-.02-1.42-.02-2.84-.03-4.26-.03-1.58,0-3.16,.02-4.74,.04-.37,0-.74,.01-1.11,.02-1.57,.03-3.15,.07-4.72,.13-.09,0-.17,0-.26,.01-1.51,.06-3.02,.13-4.53,.21-.33,.02-.67,.04-1,.05-1.58,.09-3.17,.19-4.75,.3-.12,0-.23,.02-.35,.03-1.51,.11-3.02,.24-4.52,.37-.27,.02-.53,.05-.8,.07-1.61,.15-3.22,.31-4.83,.49-.11,.01-.21,.02-.32,.04-1.56,.17-3.11,.36-4.66,.56-.18,.02-.36,.04-.54,.07-1.65,.21-3.29,.44-4.93,.68-.08,.01-.16,.02-.24,.04-1.63,.24-3.26,.5-4.89,.77-.07,.01-.14,.02-.21,.04-1.69,.28-3.37,.58-5.05,.89-.05,0-.1,.02-.15,.03-3.4,.63-6.8,1.33-10.17,2.08-.02,0-.04,0-.06,.01-3.4,.76-6.79,1.59-10.17,2.48,0,0,0,0-.01,0-3.39,.89-6.76,1.85-10.11,2.86,0,0,0,0,0,0-8.32,2.52-16.54,5.42-24.65,8.71-35.58,14.43-67.48,35.6-94.82,62.94l-129.9,129.9c-27.34,27.34-48.51,59.24-62.94,94.82C7.06,664,0,700.27,0,737.46s7.06,73.46,20.99,107.8c14.43,35.58,35.6,67.48,62.94,94.82,27.34,27.34,59.24,48.51,94.82,62.94,34.34,13.93,70.61,20.99,107.8,20.99s73.46-7.06,107.8-20.99c35.58-14.43,67.48-35.6,94.82-62.94l129.9-129.9c20.38-20.38,37.33-43.3,50.62-68.38-20.36,3.87-41.11,5.83-62.12,5.83-23.73,0-47.14-2.49-70.03-7.44Z"/><path class="cls-2" d="M1003.01,178.74c-14.43-35.58-35.6-67.48-62.94-94.82-27.34-27.34-59.24-48.51-94.82-62.94C810.92,7.06,774.65,0,737.46,0s-73.46,7.06-107.8,20.99c-35.58,14.43-67.48,35.6-94.82,62.94l-129.9,129.9c-20.38,20.38-37.33,43.3-50.62,68.38,20.36-3.87,41.11-5.83,62.12-5.83,23.73,0,47.14,2.49,70.03,7.44l124.13-124.13c33.88-33.89,78.94-52.55,126.86-52.55s92.97,18.66,126.86,52.55c69.95,69.95,69.95,183.77,0,253.71l-129.9,129.9c-34.98,34.97-80.92,52.46-126.86,52.46s-91.88-17.49-126.86-52.46c-19.69-19.69-34.22-43.14-42.96-68.74-6.98-1.1-14.1-1.67-21.31-1.67-30.37,0-59.17,9.93-82.68,28.24,2.41,7.79,5.16,15.5,8.25,23.11,14.43,35.58,35.6,67.48,62.94,94.82,27.34,27.34,59.24,48.51,94.82,62.94,34.34,13.92,70.61,20.99,107.8,20.99s73.46-7.06,107.8-20.99c35.58-14.43,67.48-35.6,94.82-62.94l129.9-129.9c27.34-27.34,48.51-59.24,62.94-94.82,13.92-34.34,20.99-70.61,20.99-107.8s-7.06-73.46-20.99-107.8Z"/><path class="cls-3" d="M506.22,242.25c-160.23,0-290.15,125.29-290.15,279.82s129.92,279.82,290.15,279.82,290.15-125.27,290.15-279.82S666.48,242.25,506.22,242.25Zm115.69,257.44l-115.99,186.27c-3.25,5.19-11.49,2.98-11.49-3.07l-.07-129.3h-98.53c-1.09,0-2.18-.29-3.13-.83s-1.74-1.32-2.27-2.24-.81-1.97-.79-3.04,.32-2.1,.91-3l115.99-186.3c3.25-5.19,11.49-2.98,11.49,3.07l.09,129.3h98.51c1.11,0,2.18,.29,3.13,.83s1.74,1.32,2.27,2.24c.53,.94,.81,1.97,.79,3.04-.02,1.07-.32,2.13-.91,3.02h0Z"/></g></g></svg>